<svg width="41" height="57" xmlns="http://www.w3.org/2000/svg">
 <!-- Created with SVG Editor - http://github.com/mzalive/SVG Editor/ -->

 <g>
  <title>background</title>
  <rect fill="#ffffff" id="canvas_background" height="" width="" y="-1" x="-1"/>
  <g display="none" overflow="visible" y="0" x="0" height="100%" width="100%" id="canvasGrid">
   <rect fill="url(#gridpattern)" stroke-width="0" y="0" x="0" height="100%" width="100%"/>
  </g>
 </g>
 <g>
  <title>Layer 1</title>
  <g id="svg_14">
   <g transform="matrix(0.06781683510376357,0,0,0.06781683510376357,0,0) " id="svg_5">
    <path id="svg_6" fill="#507C5C" d="m392.466442,521.420425l-246.104,0c-7.964,0 -14.423,-6.457 -14.423,-14.423l0,-270.41c0,-4.359 1.972,-8.485 5.364,-11.222l178.04,-143.715c5.287,-4.266 12.83,-4.266 18.119,0l178.04,143.716c3.392,2.737 5.364,6.864 5.364,11.222l0,269.651c0,7.966 -6.458,14.423 -14.423,14.423s-14.423,-6.457 -14.423,-14.423l0,-262.759l-163.617,-132.073l-163.619,132.073l0,249.094l231.682,0c7.964,0 14.423,6.457 14.423,14.423c0,7.966 -6.457,14.423 -14.423,14.423z"/>
    <path id="svg_7" fill="#507C5C" d="m549.867442,219.262425c-3.169,0 -6.357,-1.038 -9.02,-3.176l-216.444,-173.749l-216.445,173.748c-6.21,4.984 -15.289,3.994 -20.275,-2.22c-4.987,-6.212 -3.994,-15.289 2.218,-20.275l225.473,-180.994c5.273,-4.234 12.783,-4.234 18.057,0l225.473,180.995c6.212,4.987 7.206,14.063 2.218,20.275c-2.848,3.55 -7.032,5.396 -11.255,5.396z"/>
   </g>
   <circle transform="matrix(0.06781683510376357,0,0,0.06781683510376357,0,0) " id="svg_8" fill="#CFF09E" r="42.948002" cy="217.106526" cx="324.404605"/>
   <path id="svg_9" fill="#507C5C" d="m22.000026,18.614401c-2.145386,0 -3.890584,-1.745334 -3.890584,-3.890652s1.745334,-3.890652 3.890584,-3.890652s3.890584,1.745334 3.890584,3.890652s-1.745334,3.890652 -3.890584,3.890652zm0,-5.825127c-1.066623,0 -1.934407,0.867784 -1.934407,1.934475s0.867784,1.934475 1.934407,1.934475s1.934407,-0.867784 1.934407,-1.934475s-0.867784,-1.934475 -1.934407,-1.934475z"/>
   <rect transform="matrix(0.06781683510376357,0,0,0.06781683510376357,0,0) " id="svg_10" fill="#CFF09E" height="171.918" width="136.135" y="335.083526" x="256.344605"/>
   <g transform="matrix(0.06781683510376357,0,0,0.06781683510376357,0,0) " id="svg_11">
    <path id="svg_12" fill="#507C5C" d="m392.466442,521.420425l-136.128,0c-7.964,0 -14.423,-6.457 -14.423,-14.423l0,-171.92c0,-7.966 6.458,-14.423 14.423,-14.423l136.128,0c7.964,0 14.423,6.457 14.423,14.423l0,171.921c0,7.965 -6.457,14.422 -14.423,14.422zm-121.705,-28.845l107.283,0l0,-143.075l-107.283,0l0,143.075z"/>
    <path id="svg_13" fill="#507C5C" d="m504.875442,174.771425c-7.964,0 -14.423,-6.457 -14.423,-14.423l0,-77.615l-28.524,0c-7.964,0 -14.423,-6.457 -14.423,-14.423s6.458,-14.423 14.423,-14.423l42.946,0c7.964,0 14.423,6.457 14.423,14.423l0,92.039c0,7.965 -6.458,14.422 -14.422,14.422z"/>
   </g>
  </g>
 </g>
</svg>